<?xml version="1.0" encoding="UTF-8"?>
<svg width="402px" height="78px" viewBox="0 0 402 78" version="1.1" xmlns="http://www.w3.org/2000/svg" xmlns:xlink="http://www.w3.org/1999/xlink">
    <!-- Generator: Sketch 42 (36781) - http://www.bohemiancoding.com/sketch -->
    <title>Group 3</title>
    <desc>Created with Sketch.</desc>
    <defs></defs>
    <g id="Page-1" stroke="none" stroke-width="1" fill="none" fill-rule="evenodd">
        <g id="Artboard-2" transform="translate(-247.000000, -537.000000)">
            <g id="Group-3" transform="translate(247.000000, 537.000000)">
                <g id="Icons" transform="translate(221.000000, 0.000000)">
                    <path d="M114,1 L147.5,1 L181,1 L181,34.5 L181,68 L147.5,68 L114,68 L114,34.5 L114,1 Z M172.183651,34.7552381 C172.800476,34.095873 173.715079,32.894127 173.789524,32.6069841 C173.810794,32.5219048 170.896825,30.5650794 169.131429,29.4696825 C169.067619,29.4271429 168.812381,29.7036508 168.525238,30.1290476 C167.66381,31.3839683 166.759841,31.9263492 165.377302,32.0220635 C163.346032,32.1603175 162.037937,31.0968254 162.048571,29.3207937 C162.048571,28.7996825 162.123016,28.4912698 162.335714,28.065873 C162.782381,27.1406349 163.611905,26.587619 166.21746,25.4603175 C171.01381,23.3971429 173.066349,22.035873 174.34254,20.1003175 C175.767619,17.9414286 176.086667,14.4957143 175.118889,11.9326984 C174.055397,9.14634921 171.417937,7.25333333 167.706349,6.62587302 C166.557778,6.42380952 163.835238,6.45571429 162.601587,6.67904762 C159.910952,7.15761905 157.358571,8.48698413 155.784603,10.2311111 C155.167778,10.911746 153.966032,12.6877778 154.040476,12.8153968 C154.072381,12.8579365 154.348889,13.0280952 154.657302,13.2088889 C154.955079,13.3790476 156.082381,14.0277778 157.145873,14.6446032 L159.070794,15.7612698 L159.474921,15.1657143 C160.038571,14.3042857 161.272222,13.1238095 162.016667,12.7303175 C164.154286,11.6030159 167.089524,11.7625397 168.535873,13.06 C169.152698,13.6236508 169.407937,14.2085714 169.407937,15.07 C169.407937,15.8463492 169.312222,16.1866667 168.908095,16.7715873 C168.386984,17.5160317 167.323492,18.1434921 164.303175,19.4515873 C160.846825,20.9404762 159.357937,21.8657143 157.996667,23.3333333 C157.209683,24.184127 156.465238,25.5453968 156.156825,26.6833333 C155.901587,27.6298413 155.837778,30.0014286 156.039841,30.9585714 C156.752381,34.2979365 159.272857,36.6269841 162.91,37.318254 C164.090476,37.5415873 166.834286,37.4565079 167.993492,37.1693651 C169.695079,36.7439683 170.99254,35.9888889 172.183651,34.7552381 Z M152.285714,31.6285714 L147.925397,31.6285714 L143.565079,31.6285714 L143.565079,19.2388889 L143.565079,6.84920635 L140.480952,6.84920635 L137.396825,6.84920635 L137.396825,19.2388889 L137.396825,31.6285714 L133.036508,31.6285714 L128.67619,31.6285714 L128.67619,34.3192063 C128.67619,35.8080952 128.708095,37.052381 128.750635,37.0842857 C128.78254,37.1268254 134.089365,37.1480952 140.523492,37.1374603 L152.23254,37.1055556 L152.264444,34.372381 L152.285714,31.6285714 Z" id="TypeScript" fill="#007ACC" transform="translate(147.500000, 34.500000) scale(-1, 1) rotate(180.000000) translate(-147.500000, -34.500000) "></path>
                    <g id="AzureFunctions" fill-rule="nonzero">
                        <path d="M83.0560606,39.52 C83.8356061,38.74 83.7056818,37.31 83.0560606,36.53 L79.0284091,32.5 L61.0988636,15.08 C60.3193182,14.3 59.15,14.3 58.2405303,15.08 L58.2405303,15.08 C57.4609848,15.86 57.2011364,17.29 58.2405303,18.07 L77.0795455,36.53 C77.8590909,37.31 77.8590909,38.74 77.0795455,39.52 L57.8507576,58.63 C57.0712121,59.41 57.0712121,60.84 57.8507576,61.62 L57.8507576,61.62 C58.630303,62.4 60.0594697,62.27 60.7090909,61.62 L78.5087121,43.94 C78.5087121,43.94 78.5087121,43.94 78.6386364,43.81 L83.0560606,39.52 Z" id="Shape" fill="#3999C6"></path>
                        <path d="M0.943939394,39.52 C0.164393939,38.74 0.294318182,37.31 0.943939394,36.53 L4.97159091,32.5 L22.9011364,15.08 C23.6806818,14.3 24.85,14.3 25.7594697,15.08 L25.7594697,15.08 C26.5390152,15.86 26.7988636,17.29 25.7594697,18.07 L7.31022727,36.53 C6.53068182,37.31 6.53068182,38.74 7.31022727,39.52 L26.1492424,58.63 C26.9287879,59.41 26.9287879,60.84 26.1492424,61.62 L26.1492424,61.62 C25.369697,62.4 23.9405303,62.27 23.2909091,61.62 L5.10151515,44.2 C5.10151515,44.2 5.10151515,44.2 4.97159091,44.07 L0.943939394,39.52 Z" id="Shape" fill="#3999C6"></path>
                        <polygon id="Shape" fill="#FCD116" points="62.2681818 0.65 36.9329545 0.65 23.2909091 39.13 39.9212121 39.26 26.9287879 77.35 62.7878788 26.52 45.3780303 26.52"></polygon>
                        <polygon id="Shape" fill="#FF8C00" opacity="0.3" points="45.3730095 26.52 62.263161 0.65 49.0108883 0.65 34.9790701 32.63 51.6093732 32.76 26.9237671 77.35 62.782858 26.52"></polygon>
                    </g>
                </g>
                <g id="Title" transform="translate(0.000000, 9.000000)" fill-rule="nonzero">
                    <path d="M0,7.59812471 L21.8637539,4.62050773 L21.8733113,25.7098681 L0.0199724936,25.8343163 L0,7.59812471 Z M21.8533388,28.1397731 L21.8703093,49.247513 L0.016970493,46.2430006 L0.0157451867,27.998189 L21.8533388,28.1397731 Z M24.5037378,4.23098284 L53.4932608,-2.84217094e-14 L53.4932608,25.4416485 L24.5037378,25.6717917 L24.5037378,4.23098284 Z M53.5,28.3382727 L53.4931995,53.6653551 L24.5036765,49.5738121 L24.4630576,28.2908534 L53.5,28.3382727 Z" id="Windows" fill="#00ADEF"></path>
                    <path d="M105.916528,43.754591 L101.270451,43.754591 L97.4323873,33.654424 L82.2821369,33.654424 L78.6460768,43.754591 L74,43.754591 L87.9382304,8 L92.1803005,8 L105.916528,43.754591 Z M96.2203673,29.8163606 L90.5642738,14.6661102 C90.3622705,14.2621035 90.1602671,13.4540902 89.9582638,12.2420701 C89.7562604,13.2520868 89.5542571,14.0601002 89.3522538,14.6661102 L83.8981636,29.8163606 L96.2203673,29.8163606 Z M127.126878,19.312187 L111.976628,40.1185309 L126.924875,40.1185309 L126.924875,43.754591 L106.118531,43.754591 L106.118531,42.542571 L121.268781,21.736227 L107.532554,21.736227 L107.532554,18.1001669 L127.126878,18.1001669 L127.126878,19.312187 Z M151.771285,43.754591 L147.731219,43.754591 L147.731219,39.7145242 C146.115192,42.7445743 143.489149,44.360601 139.853088,44.360601 C133.792988,44.360601 130.762938,40.7245409 130.762938,33.4524207 L130.762938,18.1001669 L134.803005,18.1001669 L134.803005,32.6444073 C134.803005,38.0984975 136.823038,40.7245409 141.065109,40.7245409 C143.085142,40.7245409 144.701169,39.9165275 145.913189,38.5025042 C147.125209,37.0884808 147.933222,35.0684474 147.933222,32.6444073 L147.933222,18.1001669 L151.973289,18.1001669 L151.973289,43.754591 L151.771285,43.754591 Z M171.971619,22.3422371 C171.163606,21.736227 170.153589,21.5342237 168.941569,21.5342237 C167.123539,21.5342237 165.709516,22.3422371 164.497496,23.9582638 C163.285476,25.5742905 162.679466,27.7963272 162.679466,30.624374 L162.679466,43.754591 L158.639399,43.754591 L158.639399,18.1001669 L162.679466,18.1001669 L162.679466,23.3522538 C163.285476,21.5342237 164.093489,20.1202003 165.305509,19.1101836 C166.517529,18.1001669 167.931553,17.6961603 169.345576,17.6961603 C170.355593,17.6961603 171.163606,17.8981636 171.769616,18.1001669 L171.769616,22.3422371 L171.971619,22.3422371 Z M195,31.836394 L177.021703,31.836394 C177.021703,34.6644407 177.829716,36.8864775 179.24374,38.5025042 C180.657763,40.1185309 182.677796,40.7245409 185.30384,40.7245409 C188.131886,40.7245409 190.75793,39.7145242 193.18197,37.8964942 L193.18197,41.7345576 C190.959933,43.3505843 187.929883,44.1585977 184.293823,44.1585977 C180.657763,44.1585977 177.829716,42.9465776 175.809683,40.7245409 C173.789649,38.5025042 172.779633,35.0684474 172.779633,31.0283806 C172.779633,26.9883139 173.991653,23.7562604 176.213689,21.3322204 C178.435726,18.9081803 181.263773,17.4941569 184.495826,17.4941569 C187.72788,17.4941569 190.353923,18.5041736 192.171953,20.7262104 C193.989983,22.9482471 195,25.9782972 195,29.6143573 L195,31.836394 Z M190.75793,28.4023372 C190.75793,25.9782972 190.15192,24.1602671 189.141903,22.9482471 C187.929883,21.736227 186.51586,20.9282137 184.495826,20.9282137 C182.475793,20.9282137 180.859766,21.5342237 179.647746,22.9482471 C178.233723,24.3622705 177.42571,26.1803005 177.223706,28.4023372 L190.75793,28.4023372 L190.75793,28.4023372 Z" id="Azure" fill="#29A5DE"></path>
                </g>
            </g>
        </g>
    </g>
</svg>